<svg width="1500" height="250" viewBox="0 0 1500 250" fill="none" xmlns="http://www.w3.org/2000/svg">
<rect width="1500" height="250" fill="#F7F6F3"/>
<path d="M712.406 8.87438L762.124 5.20491C768.23 4.68008 769.8 5.03163 773.638 7.82545L789.508 19.005C792.127 20.9274 793 21.4509 793 23.5466V84.8624C793 88.7052 791.603 90.9778 786.72 91.3254L728.983 94.8198C725.317 94.9951 723.572 94.4714 721.652 92.0243L709.965 76.8267C707.871 74.0293 707 71.9364 707 69.4878V14.9861C707 11.8436 708.397 9.22236 712.406 8.87438Z" fill="white"/>
<path fill-rule="evenodd" clip-rule="evenodd" d="M762.124 5.20491L712.406 8.87438C708.397 9.22236 707 11.8436 707 14.9861V69.4878C707 71.9364 707.871 74.0293 709.965 76.8267L721.652 92.0243C723.572 94.4715 725.317 94.9951 728.983 94.8198L786.72 91.3254C791.603 90.9778 793 88.7052 793 84.8624V23.5466C793 21.5601 792.216 20.9863 789.904 19.2948C789.777 19.2017 789.645 19.1052 789.508 19.005L773.638 7.82545C769.8 5.03163 768.23 4.68008 762.124 5.20491ZM730.29 22.5399C725.576 22.8589 724.505 22.9314 721.829 20.7518L715.021 15.3367C714.327 14.6365 714.675 13.763 716.418 13.5897L764.214 10.0956C768.225 9.74552 770.317 11.1453 771.888 12.3675L780.086 18.3074C780.435 18.4814 781.305 19.5282 780.258 19.5282L730.898 22.4989C730.689 22.5129 730.486 22.5266 730.29 22.5399ZM724.792 84.3418V32.2869C724.792 30.0165 725.49 28.9676 727.582 28.7914L784.27 25.4735C786.193 25.2988 787.063 26.5224 787.063 28.7914V80.4969C787.063 82.7695 786.714 84.6938 783.573 84.8669L729.326 88.0129C726.187 88.186 724.792 87.1395 724.792 84.3418ZM778.345 35.0741C778.693 36.6479 778.345 38.2202 776.772 38.3971L774.158 38.919V77.3494C771.889 78.5719 769.796 79.2708 768.052 79.2708C765.26 79.2708 764.561 78.3966 762.47 75.7778L745.373 48.8764V74.9043L750.783 76.128C750.783 76.128 750.783 79.2708 746.419 79.2708L734.386 79.9704C734.036 79.2708 734.386 77.5254 735.606 77.1756L738.746 76.3034V41.8897L734.387 41.5396C734.037 39.9658 734.908 37.6968 737.352 37.5207L750.26 36.6486L768.052 63.9002V39.7925L763.516 39.2706C763.168 37.3467 764.561 35.9498 766.306 35.7765L778.345 35.0741Z" fill="black"/>
<path d="M347.821 226V201.273H356.176C358.116 201.273 359.701 201.623 360.933 202.323C362.172 203.015 363.09 203.953 363.686 205.136C364.281 206.32 364.579 207.64 364.579 209.097C364.579 210.554 364.281 211.878 363.686 213.069C363.098 214.26 362.188 215.21 360.957 215.918C359.725 216.619 358.148 216.969 356.224 216.969H350.235V214.312H356.127C357.456 214.312 358.522 214.083 359.327 213.624C360.132 213.165 360.715 212.546 361.078 211.765C361.448 210.976 361.633 210.087 361.633 209.097C361.633 208.107 361.448 207.221 361.078 206.44C360.715 205.66 360.128 205.048 359.315 204.605C358.502 204.154 357.423 203.929 356.079 203.929H350.815V226H347.821ZM368.676 226V207.455H371.429V210.256H371.622C371.96 209.338 372.572 208.594 373.458 208.022C374.343 207.451 375.341 207.165 376.452 207.165C376.661 207.165 376.923 207.169 377.237 207.177C377.551 207.185 377.788 207.197 377.949 207.213V210.111C377.852 210.087 377.631 210.05 377.285 210.002C376.947 209.946 376.589 209.918 376.21 209.918C375.309 209.918 374.504 210.107 373.796 210.485C373.095 210.855 372.54 211.371 372.129 212.031C371.727 212.683 371.526 213.427 371.526 214.264V226H368.676ZM386.444 226.435C385.269 226.435 384.202 226.213 383.244 225.771C382.287 225.32 381.526 224.672 380.962 223.827C380.399 222.973 380.117 221.943 380.117 220.736C380.117 219.673 380.327 218.812 380.745 218.152C381.164 217.484 381.723 216.961 382.423 216.582C383.124 216.204 383.896 215.922 384.742 215.737C385.595 215.544 386.452 215.391 387.313 215.278C388.44 215.134 389.354 215.025 390.054 214.952C390.762 214.872 391.278 214.739 391.6 214.554C391.93 214.369 392.095 214.047 392.095 213.588V213.491C392.095 212.3 391.769 211.375 391.117 210.714C390.473 210.054 389.495 209.724 388.183 209.724C386.822 209.724 385.756 210.022 384.983 210.618C384.21 211.214 383.667 211.849 383.353 212.526L380.649 211.56C381.132 210.433 381.775 209.555 382.58 208.928C383.393 208.292 384.279 207.849 385.237 207.599C386.203 207.342 387.152 207.213 388.086 207.213C388.682 207.213 389.366 207.286 390.139 207.43C390.919 207.567 391.672 207.853 392.396 208.288C393.129 208.722 393.737 209.378 394.22 210.256C394.703 211.133 394.944 212.308 394.944 213.781V226H392.095V223.489H391.95C391.757 223.891 391.435 224.322 390.984 224.781C390.533 225.239 389.933 225.63 389.185 225.952C388.436 226.274 387.523 226.435 386.444 226.435ZM386.879 223.875C388.006 223.875 388.955 223.654 389.728 223.211C390.509 222.768 391.096 222.197 391.491 221.496C391.893 220.796 392.095 220.06 392.095 219.287V216.679C391.974 216.824 391.708 216.957 391.298 217.077C390.895 217.19 390.428 217.291 389.897 217.379C389.374 217.46 388.863 217.532 388.364 217.597C387.873 217.653 387.474 217.701 387.168 217.741C386.428 217.838 385.736 217.995 385.092 218.212C384.456 218.422 383.941 218.74 383.546 219.166C383.16 219.585 382.967 220.156 382.967 220.881C382.967 221.871 383.333 222.619 384.065 223.126C384.806 223.625 385.744 223.875 386.879 223.875ZM412.941 211.608L410.382 212.332C410.221 211.906 409.983 211.491 409.669 211.089C409.363 210.678 408.945 210.34 408.414 210.075C407.882 209.809 407.202 209.676 406.373 209.676C405.238 209.676 404.292 209.938 403.536 210.461C402.787 210.976 402.413 211.632 402.413 212.429C402.413 213.137 402.67 213.697 403.186 214.107C403.701 214.518 404.506 214.86 405.6 215.134L408.353 215.81C410.011 216.212 411.247 216.828 412.06 217.657C412.873 218.478 413.279 219.536 413.279 220.832C413.279 221.895 412.973 222.845 412.362 223.682C411.758 224.519 410.913 225.179 409.826 225.662C408.739 226.145 407.476 226.386 406.035 226.386C404.143 226.386 402.578 225.976 401.338 225.155C400.099 224.334 399.314 223.134 398.984 221.557L401.688 220.881C401.946 221.879 402.433 222.627 403.149 223.126C403.874 223.625 404.82 223.875 405.987 223.875C407.315 223.875 408.369 223.593 409.15 223.03C409.939 222.458 410.333 221.774 410.333 220.977C410.333 220.333 410.108 219.794 409.657 219.359C409.206 218.917 408.514 218.587 407.58 218.369L404.489 217.645C402.791 217.242 401.543 216.619 400.747 215.773C399.958 214.92 399.563 213.854 399.563 212.574C399.563 211.527 399.857 210.602 400.445 209.797C401.04 208.992 401.849 208.36 402.872 207.901C403.902 207.442 405.069 207.213 406.373 207.213C408.208 207.213 409.649 207.616 410.695 208.42C411.75 209.225 412.498 210.288 412.941 211.608ZM422.686 226.435C421.511 226.435 420.444 226.213 419.486 225.771C418.528 225.32 417.768 224.672 417.204 223.827C416.641 222.973 416.359 221.943 416.359 220.736C416.359 219.673 416.568 218.812 416.987 218.152C417.406 217.484 417.965 216.961 418.665 216.582C419.366 216.204 420.138 215.922 420.983 215.737C421.837 215.544 422.694 215.391 423.555 215.278C424.682 215.134 425.596 215.025 426.296 214.952C427.004 214.872 427.519 214.739 427.841 214.554C428.171 214.369 428.336 214.047 428.336 213.588V213.491C428.336 212.3 428.01 211.375 427.358 210.714C426.715 210.054 425.737 209.724 424.425 209.724C423.064 209.724 421.998 210.022 421.225 210.618C420.452 211.214 419.909 211.849 419.595 212.526L416.89 211.56C417.373 210.433 418.017 209.555 418.822 208.928C419.635 208.292 420.521 207.849 421.479 207.599C422.444 207.342 423.394 207.213 424.328 207.213C424.924 207.213 425.608 207.286 426.381 207.43C427.161 207.567 427.914 207.853 428.638 208.288C429.371 208.722 429.979 209.378 430.461 210.256C430.944 211.133 431.186 212.308 431.186 213.781V226H428.336V223.489H428.192C427.998 223.891 427.676 224.322 427.226 224.781C426.775 225.239 426.175 225.63 425.427 225.952C424.678 226.274 423.764 226.435 422.686 226.435ZM423.121 223.875C424.247 223.875 425.197 223.654 425.97 223.211C426.751 222.768 427.338 222.197 427.733 221.496C428.135 220.796 428.336 220.06 428.336 219.287V216.679C428.216 216.824 427.95 216.957 427.54 217.077C427.137 217.19 426.67 217.291 426.139 217.379C425.616 217.46 425.105 217.532 424.606 217.597C424.115 217.653 423.716 217.701 423.41 217.741C422.67 217.838 421.978 217.995 421.334 218.212C420.698 218.422 420.183 218.74 419.788 219.166C419.402 219.585 419.209 220.156 419.209 220.881C419.209 221.871 419.575 222.619 420.307 223.126C421.048 223.625 421.986 223.875 423.121 223.875ZM443.05 226.386C441.504 226.386 440.14 225.996 438.957 225.215C437.773 224.426 436.848 223.316 436.18 221.883C435.511 220.442 435.177 218.74 435.177 216.776C435.177 214.828 435.511 213.137 436.18 211.705C436.848 210.272 437.777 209.165 438.969 208.384C440.16 207.603 441.536 207.213 443.098 207.213C444.305 207.213 445.259 207.414 445.959 207.817C446.668 208.211 447.207 208.662 447.577 209.169C447.956 209.668 448.249 210.079 448.459 210.401H448.7V201.273H451.55V226H448.797V223.151H448.459C448.249 223.489 447.952 223.915 447.565 224.43C447.179 224.937 446.627 225.392 445.911 225.795C445.195 226.189 444.241 226.386 443.05 226.386ZM443.436 223.827C444.579 223.827 445.545 223.529 446.334 222.933C447.122 222.33 447.722 221.496 448.133 220.434C448.543 219.363 448.748 218.128 448.748 216.727C448.748 215.343 448.547 214.131 448.145 213.093C447.742 212.047 447.147 211.234 446.358 210.654C445.569 210.067 444.595 209.773 443.436 209.773C442.229 209.773 441.222 210.083 440.417 210.702C439.621 211.314 439.021 212.147 438.618 213.202C438.224 214.248 438.027 215.423 438.027 216.727C438.027 218.047 438.228 219.247 438.631 220.325C439.041 221.396 439.645 222.249 440.442 222.885C441.247 223.513 442.245 223.827 443.436 223.827ZM467.447 201.273L474.788 222.088H475.078L482.419 201.273H485.558L476.478 226H473.387L464.308 201.273H467.447ZM487.473 226.193C486.877 226.193 486.366 225.98 485.939 225.553C485.513 225.127 485.299 224.616 485.299 224.02C485.299 223.424 485.513 222.913 485.939 222.487C486.366 222.06 486.877 221.847 487.473 221.847C488.068 221.847 488.579 222.06 489.006 222.487C489.433 222.913 489.646 223.424 489.646 224.02C489.646 224.414 489.545 224.777 489.344 225.107C489.151 225.437 488.889 225.702 488.559 225.903C488.237 226.097 487.875 226.193 487.473 226.193ZM504.028 226V201.273H512.383C514.323 201.273 515.909 201.623 517.14 202.323C518.38 203.015 519.297 203.953 519.893 205.136C520.489 206.32 520.787 207.64 520.787 209.097C520.787 210.554 520.489 211.878 519.893 213.069C519.305 214.26 518.396 215.21 517.164 215.918C515.933 216.619 514.355 216.969 512.431 216.969H506.443V214.312H512.335C513.663 214.312 514.729 214.083 515.534 213.624C516.339 213.165 516.923 212.546 517.285 211.765C517.655 210.976 517.841 210.087 517.841 209.097C517.841 208.107 517.655 207.221 517.285 206.44C516.923 205.66 516.335 205.048 515.522 204.605C514.709 204.154 513.631 203.929 512.287 203.929H507.022V226H504.028ZM532.219 226.386C530.544 226.386 529.075 225.988 527.812 225.191C526.556 224.394 525.574 223.279 524.866 221.847C524.165 220.414 523.815 218.74 523.815 216.824C523.815 214.892 524.165 213.206 524.866 211.765C525.574 210.324 526.556 209.205 527.812 208.408C529.075 207.612 530.544 207.213 532.219 207.213C533.893 207.213 535.358 207.612 536.613 208.408C537.877 209.205 538.859 210.324 539.559 211.765C540.268 213.206 540.622 214.892 540.622 216.824C540.622 218.74 540.268 220.414 539.559 221.847C538.859 223.279 537.877 224.394 536.613 225.191C535.358 225.988 533.893 226.386 532.219 226.386ZM532.219 223.827C533.49 223.827 534.537 223.501 535.358 222.849C536.179 222.197 536.786 221.339 537.181 220.277C537.575 219.214 537.773 218.063 537.773 216.824C537.773 215.584 537.575 214.429 537.181 213.359C536.786 212.288 536.179 211.423 535.358 210.763C534.537 210.103 533.49 209.773 532.219 209.773C530.947 209.773 529.9 210.103 529.079 210.763C528.258 211.423 527.651 212.288 527.256 213.359C526.862 214.429 526.665 215.584 526.665 216.824C526.665 218.063 526.862 219.214 527.256 220.277C527.651 221.339 528.258 222.197 529.079 222.849C529.9 223.501 530.947 223.827 532.219 223.827ZM552.697 207.455V209.869H543.086V207.455H552.697ZM545.887 203.011H548.737V220.688C548.737 221.492 548.853 222.096 549.087 222.499C549.328 222.893 549.634 223.159 550.004 223.295C550.383 223.424 550.781 223.489 551.2 223.489C551.514 223.489 551.771 223.473 551.972 223.44C552.174 223.4 552.335 223.368 552.455 223.344L553.035 225.903C552.842 225.976 552.572 226.048 552.226 226.121C551.88 226.201 551.441 226.241 550.91 226.241C550.105 226.241 549.316 226.068 548.544 225.722C547.779 225.376 547.143 224.849 546.636 224.141C546.137 223.432 545.887 222.539 545.887 221.46V203.011ZM559.891 201.273V226H557.042V201.273H559.891ZM576.457 218.418V207.455H579.307V226H576.457V222.861H576.264C575.83 223.803 575.153 224.603 574.236 225.263C573.318 225.915 572.159 226.241 570.759 226.241C569.599 226.241 568.569 225.988 567.668 225.481C566.766 224.966 566.058 224.193 565.543 223.163C565.028 222.124 564.77 220.816 564.77 219.239V207.455H567.619V219.045C567.619 220.398 567.998 221.476 568.754 222.281C569.519 223.086 570.493 223.489 571.676 223.489C572.385 223.489 573.105 223.308 573.837 222.945C574.578 222.583 575.198 222.028 575.697 221.279C576.204 220.531 576.457 219.577 576.457 218.418ZM584.186 226V207.455H586.939V210.256H587.132C587.47 209.338 588.082 208.594 588.967 208.022C589.852 207.451 590.851 207.165 591.961 207.165C592.171 207.165 592.432 207.169 592.746 207.177C593.06 207.185 593.298 207.197 593.459 207.213V210.111C593.362 210.087 593.141 210.05 592.794 210.002C592.456 209.946 592.098 209.918 591.72 209.918C590.818 209.918 590.013 210.107 589.305 210.485C588.605 210.855 588.049 211.371 587.639 212.031C587.236 212.683 587.035 213.427 587.035 214.264V226H584.186ZM596.496 226V207.455H599.346V226H596.496ZM597.945 204.364C597.39 204.364 596.911 204.174 596.508 203.796C596.114 203.418 595.917 202.963 595.917 202.432C595.917 201.901 596.114 201.446 596.508 201.067C596.911 200.689 597.39 200.5 597.945 200.5C598.5 200.5 598.975 200.689 599.37 201.067C599.772 201.446 599.973 201.901 599.973 202.432C599.973 202.963 599.772 203.418 599.37 203.796C598.975 204.174 598.5 204.364 597.945 204.364ZM627.356 207.455C627.211 206.231 626.624 205.281 625.593 204.605C624.563 203.929 623.299 203.591 621.802 203.591C620.707 203.591 619.75 203.768 618.929 204.122C618.116 204.476 617.48 204.963 617.021 205.583C616.57 206.203 616.345 206.907 616.345 207.696C616.345 208.356 616.502 208.924 616.816 209.398C617.138 209.865 617.548 210.256 618.047 210.57C618.546 210.875 619.069 211.129 619.617 211.33C620.164 211.523 620.667 211.68 621.126 211.801L623.637 212.477C624.281 212.646 624.998 212.88 625.787 213.178C626.583 213.475 627.344 213.882 628.068 214.397C628.801 214.904 629.405 215.556 629.88 216.353C630.354 217.15 630.592 218.128 630.592 219.287C630.592 220.623 630.242 221.83 629.541 222.909C628.849 223.988 627.835 224.845 626.499 225.481C625.171 226.117 623.557 226.435 621.657 226.435C619.886 226.435 618.353 226.149 617.057 225.577C615.769 225.006 614.755 224.209 614.015 223.187C613.282 222.165 612.867 220.977 612.771 219.625H615.862C615.942 220.559 616.256 221.331 616.804 221.943C617.359 222.547 618.059 222.998 618.904 223.295C619.758 223.585 620.675 223.73 621.657 223.73C622.8 223.73 623.827 223.545 624.736 223.175C625.646 222.796 626.366 222.273 626.897 221.605C627.429 220.929 627.694 220.14 627.694 219.239C627.694 218.418 627.465 217.75 627.006 217.234C626.547 216.719 625.943 216.301 625.195 215.979C624.446 215.657 623.637 215.375 622.768 215.134L619.725 214.264C617.794 213.709 616.264 212.916 615.137 211.886C614.01 210.855 613.447 209.507 613.447 207.841C613.447 206.456 613.821 205.249 614.57 204.219C615.327 203.18 616.341 202.375 617.613 201.804C618.892 201.224 620.321 200.935 621.899 200.935C623.492 200.935 624.909 201.22 626.149 201.792C627.388 202.355 628.37 203.128 629.095 204.11C629.827 205.092 630.214 206.207 630.254 207.455H627.356ZM634.789 226V207.455H637.638V226H634.789ZM636.238 204.364C635.682 204.364 635.203 204.174 634.801 203.796C634.406 203.418 634.209 202.963 634.209 202.432C634.209 201.901 634.406 201.446 634.801 201.067C635.203 200.689 635.682 200.5 636.238 200.5C636.793 200.5 637.268 200.689 637.662 201.067C638.065 201.446 638.266 201.901 638.266 202.432C638.266 202.963 638.065 203.418 637.662 203.796C637.268 204.174 636.793 204.364 636.238 204.364ZM649.52 226.386C647.974 226.386 646.61 225.996 645.427 225.215C644.244 224.426 643.318 223.316 642.65 221.883C641.982 220.442 641.648 218.74 641.648 216.776C641.648 214.828 641.982 213.137 642.65 211.705C643.318 210.272 644.248 209.165 645.439 208.384C646.63 207.603 648.007 207.213 649.568 207.213C650.776 207.213 651.729 207.414 652.43 207.817C653.138 208.211 653.677 208.662 654.048 209.169C654.426 209.668 654.72 210.079 654.929 210.401H655.17V201.273H658.02V226H655.267V223.151H654.929C654.72 223.489 654.422 223.915 654.036 224.43C653.649 224.937 653.098 225.392 652.381 225.795C651.665 226.189 650.711 226.386 649.52 226.386ZM649.906 223.827C651.049 223.827 652.015 223.529 652.804 222.933C653.593 222.33 654.192 221.496 654.603 220.434C655.013 219.363 655.219 218.128 655.219 216.727C655.219 215.343 655.018 214.131 654.615 213.093C654.213 212.047 653.617 211.234 652.828 210.654C652.039 210.067 651.065 209.773 649.906 209.773C648.699 209.773 647.693 210.083 646.888 210.702C646.091 211.314 645.491 212.147 645.089 213.202C644.694 214.248 644.497 215.423 644.497 216.727C644.497 218.047 644.698 219.247 645.101 220.325C645.511 221.396 646.115 222.249 646.912 222.885C647.717 223.513 648.715 223.827 649.906 223.827ZM670.297 226.386C668.752 226.386 667.387 225.996 666.204 225.215C665.021 224.426 664.095 223.316 663.427 221.883C662.759 220.442 662.425 218.74 662.425 216.776C662.425 214.828 662.759 213.137 663.427 211.705C664.095 210.272 665.025 209.165 666.216 208.384C667.407 207.603 668.784 207.213 670.345 207.213C671.553 207.213 672.507 207.414 673.207 207.817C673.915 208.211 674.454 208.662 674.825 209.169C675.203 209.668 675.497 210.079 675.706 210.401H675.948V201.273H678.797V226H676.044V223.151H675.706C675.497 223.489 675.199 223.915 674.813 224.43C674.426 224.937 673.875 225.392 673.159 225.795C672.442 226.189 671.488 226.386 670.297 226.386ZM670.683 223.827C671.826 223.827 672.792 223.529 673.581 222.933C674.37 222.33 674.97 221.496 675.38 220.434C675.791 219.363 675.996 218.128 675.996 216.727C675.996 215.343 675.795 214.131 675.392 213.093C674.99 212.047 674.394 211.234 673.605 210.654C672.816 210.067 671.842 209.773 670.683 209.773C669.476 209.773 668.47 210.083 667.665 210.702C666.868 211.314 666.268 212.147 665.866 213.202C665.472 214.248 665.274 215.423 665.274 216.727C665.274 218.047 665.476 219.247 665.878 220.325C666.289 221.396 666.892 222.249 667.689 222.885C668.494 223.513 669.492 223.827 670.683 223.827ZM686.921 214.844V226H684.071V201.273H686.921V210.352H687.162C687.597 209.394 688.249 208.634 689.118 208.07C689.996 207.499 691.163 207.213 692.62 207.213C693.883 207.213 694.99 207.467 695.94 207.974C696.89 208.473 697.626 209.241 698.15 210.28C698.681 211.31 698.946 212.622 698.946 214.216V226H696.097V214.409C696.097 212.936 695.715 211.797 694.95 210.992C694.193 210.179 693.143 209.773 691.799 209.773C690.865 209.773 690.028 209.97 689.287 210.364C688.555 210.759 687.975 211.334 687.549 212.091C687.13 212.848 686.921 213.765 686.921 214.844ZM709.277 226.435C708.101 226.435 707.035 226.213 706.077 225.771C705.119 225.32 704.359 224.672 703.795 223.827C703.232 222.973 702.95 221.943 702.95 220.736C702.95 219.673 703.159 218.812 703.578 218.152C703.996 217.484 704.556 216.961 705.256 216.582C705.956 216.204 706.729 215.922 707.574 215.737C708.427 215.544 709.285 215.391 710.146 215.278C711.273 215.134 712.186 215.025 712.887 214.952C713.595 214.872 714.11 214.739 714.432 214.554C714.762 214.369 714.927 214.047 714.927 213.588V213.491C714.927 212.3 714.601 211.375 713.949 210.714C713.305 210.054 712.327 209.724 711.015 209.724C709.655 209.724 708.588 210.022 707.816 210.618C707.043 211.214 706.5 211.849 706.186 212.526L703.481 211.56C703.964 210.433 704.608 209.555 705.413 208.928C706.226 208.292 707.111 207.849 708.069 207.599C709.035 207.342 709.985 207.213 710.919 207.213C711.514 207.213 712.199 207.286 712.971 207.43C713.752 207.567 714.505 207.853 715.229 208.288C715.962 208.722 716.569 209.378 717.052 210.256C717.535 211.133 717.777 212.308 717.777 213.781V226H714.927V223.489H714.782C714.589 223.891 714.267 224.322 713.816 224.781C713.366 225.239 712.766 225.63 712.017 225.952C711.269 226.274 710.355 226.435 709.277 226.435ZM709.711 223.875C710.838 223.875 711.788 223.654 712.561 223.211C713.342 222.768 713.929 222.197 714.324 221.496C714.726 220.796 714.927 220.06 714.927 219.287V216.679C714.807 216.824 714.541 216.957 714.13 217.077C713.728 217.19 713.261 217.291 712.73 217.379C712.207 217.46 711.695 217.532 711.196 217.597C710.705 217.653 710.307 217.701 710.001 217.741C709.261 217.838 708.568 217.995 707.924 218.212C707.289 218.422 706.773 218.74 706.379 219.166C705.993 219.585 705.799 220.156 705.799 220.881C705.799 221.871 706.166 222.619 706.898 223.126C707.639 223.625 708.576 223.875 709.711 223.875ZM722.637 226V207.455H725.39V210.256H725.584C725.922 209.338 726.533 208.594 727.419 208.022C728.304 207.451 729.302 207.165 730.413 207.165C730.622 207.165 730.884 207.169 731.198 207.177C731.512 207.185 731.749 207.197 731.91 207.213V210.111C731.814 210.087 731.592 210.05 731.246 210.002C730.908 209.946 730.55 209.918 730.172 209.918C729.27 209.918 728.465 210.107 727.757 210.485C727.057 210.855 726.501 211.371 726.091 212.031C725.688 212.683 725.487 213.427 725.487 214.264V226H722.637ZM744.175 207.455V209.869H734.565V207.455H744.175ZM737.366 203.011H740.215V220.688C740.215 221.492 740.332 222.096 740.565 222.499C740.807 222.893 741.113 223.159 741.483 223.295C741.861 223.424 742.26 223.489 742.678 223.489C742.992 223.489 743.25 223.473 743.451 223.44C743.652 223.4 743.813 223.368 743.934 223.344L744.513 225.903C744.32 225.976 744.051 226.048 743.704 226.121C743.358 226.201 742.92 226.241 742.388 226.241C741.583 226.241 740.795 226.068 740.022 225.722C739.257 225.376 738.621 224.849 738.114 224.141C737.615 223.432 737.366 222.539 737.366 221.46V203.011ZM751.369 214.844V226H748.52V201.273H751.369V210.352H751.611C752.046 209.394 752.698 208.634 753.567 208.07C754.444 207.499 755.611 207.213 757.068 207.213C758.332 207.213 759.439 207.467 760.389 207.974C761.338 208.473 762.075 209.241 762.598 210.28C763.129 211.31 763.395 212.622 763.395 214.216V226H760.546V214.409C760.546 212.936 760.163 211.797 759.399 210.992C758.642 210.179 757.591 209.773 756.247 209.773C755.314 209.773 754.476 209.97 753.736 210.364C753.003 210.759 752.424 211.334 751.997 212.091C751.579 212.848 751.369 213.765 751.369 214.844ZM773.725 226.435C772.55 226.435 771.484 226.213 770.526 225.771C769.568 225.32 768.807 224.672 768.244 223.827C767.68 222.973 767.399 221.943 767.399 220.736C767.399 219.673 767.608 218.812 768.026 218.152C768.445 217.484 769.004 216.961 769.705 216.582C770.405 216.204 771.178 215.922 772.023 215.737C772.876 215.544 773.733 215.391 774.595 215.278C775.721 215.134 776.635 215.025 777.335 214.952C778.044 214.872 778.559 214.739 778.881 214.554C779.211 214.369 779.376 214.047 779.376 213.588V213.491C779.376 212.3 779.05 211.375 778.398 210.714C777.754 210.054 776.776 209.724 775.464 209.724C774.104 209.724 773.037 210.022 772.264 210.618C771.492 211.214 770.948 211.849 770.634 212.526L767.93 211.56C768.413 210.433 769.057 209.555 769.862 208.928C770.675 208.292 771.56 207.849 772.518 207.599C773.484 207.342 774.434 207.213 775.367 207.213C775.963 207.213 776.647 207.286 777.42 207.43C778.201 207.567 778.953 207.853 779.678 208.288C780.41 208.722 781.018 209.378 781.501 210.256C781.984 211.133 782.225 212.308 782.225 213.781V226H779.376V223.489H779.231C779.038 223.891 778.716 224.322 778.265 224.781C777.814 225.239 777.215 225.63 776.466 225.952C775.717 226.274 774.804 226.435 773.725 226.435ZM774.16 223.875C775.287 223.875 776.237 223.654 777.009 223.211C777.79 222.768 778.378 222.197 778.772 221.496C779.175 220.796 779.376 220.06 779.376 219.287V216.679C779.255 216.824 778.989 216.957 778.579 217.077C778.177 217.19 777.71 217.291 777.178 217.379C776.655 217.46 776.144 217.532 775.645 217.597C775.154 217.653 774.756 217.701 774.45 217.741C773.709 217.838 773.017 217.995 772.373 218.212C771.737 218.422 771.222 218.74 770.828 219.166C770.441 219.585 770.248 220.156 770.248 220.881C770.248 221.871 770.614 222.619 771.347 223.126C772.087 223.625 773.025 223.875 774.16 223.875ZM799.689 201.273V226H796.695V201.273H799.689ZM807.816 214.844V226H804.967V207.455H807.719V210.352H807.961C808.396 209.411 809.056 208.654 809.941 208.082C810.826 207.503 811.969 207.213 813.37 207.213C814.626 207.213 815.724 207.471 816.666 207.986C817.608 208.493 818.34 209.266 818.864 210.304C819.387 211.334 819.648 212.638 819.648 214.216V226H816.799V214.409C816.799 212.952 816.421 211.817 815.664 211.004C814.907 210.183 813.869 209.773 812.549 209.773C811.639 209.773 810.826 209.97 810.11 210.364C809.402 210.759 808.842 211.334 808.432 212.091C808.021 212.848 807.816 213.765 807.816 214.844ZM837.652 211.608L835.092 212.332C834.931 211.906 834.694 211.491 834.38 211.089C834.074 210.678 833.655 210.34 833.124 210.075C832.593 209.809 831.913 209.676 831.083 209.676C829.949 209.676 829.003 209.938 828.246 210.461C827.498 210.976 827.123 211.632 827.123 212.429C827.123 213.137 827.381 213.697 827.896 214.107C828.411 214.518 829.216 214.86 830.311 215.134L833.064 215.81C834.722 216.212 835.957 216.828 836.77 217.657C837.583 218.478 837.99 219.536 837.99 220.832C837.99 221.895 837.684 222.845 837.072 223.682C836.468 224.519 835.623 225.179 834.537 225.662C833.45 226.145 832.186 226.386 830.745 226.386C828.854 226.386 827.288 225.976 826.049 225.155C824.809 224.334 824.024 223.134 823.694 221.557L826.399 220.881C826.656 221.879 827.143 222.627 827.86 223.126C828.584 223.625 829.53 223.875 830.697 223.875C832.025 223.875 833.08 223.593 833.86 223.03C834.649 222.458 835.044 221.774 835.044 220.977C835.044 220.333 834.818 219.794 834.368 219.359C833.917 218.917 833.225 218.587 832.291 218.369L829.2 217.645C827.502 217.242 826.254 216.619 825.457 215.773C824.668 214.92 824.274 213.854 824.274 212.574C824.274 211.527 824.568 210.602 825.155 209.797C825.751 208.992 826.56 208.36 827.582 207.901C828.612 207.442 829.78 207.213 831.083 207.213C832.919 207.213 834.36 207.616 835.406 208.42C836.46 209.225 837.209 210.288 837.652 211.608ZM850.004 207.455V209.869H840.394V207.455H850.004ZM843.195 203.011H846.044V220.688C846.044 221.492 846.161 222.096 846.394 222.499C846.636 222.893 846.942 223.159 847.312 223.295C847.69 223.424 848.089 223.489 848.507 223.489C848.821 223.489 849.079 223.473 849.28 223.44C849.481 223.4 849.642 223.368 849.763 223.344L850.342 225.903C850.149 225.976 849.88 226.048 849.533 226.121C849.187 226.201 848.749 226.241 848.217 226.241C847.412 226.241 846.624 226.068 845.851 225.722C845.086 225.376 844.45 224.849 843.943 224.141C843.444 223.432 843.195 222.539 843.195 221.46V203.011ZM853.951 226V207.455H856.8V226H853.951ZM855.399 204.364C854.844 204.364 854.365 204.174 853.963 203.796C853.568 203.418 853.371 202.963 853.371 202.432C853.371 201.901 853.568 201.446 853.963 201.067C854.365 200.689 854.844 200.5 855.399 200.5C855.955 200.5 856.43 200.689 856.824 201.067C857.227 201.446 857.428 201.901 857.428 202.432C857.428 202.963 857.227 203.418 856.824 203.796C856.43 204.174 855.955 204.364 855.399 204.364ZM869.744 207.455V209.869H860.133V207.455H869.744ZM862.935 203.011H865.784V220.688C865.784 221.492 865.901 222.096 866.134 222.499C866.376 222.893 866.681 223.159 867.052 223.295C867.43 223.424 867.828 223.489 868.247 223.489C868.561 223.489 868.819 223.473 869.02 223.44C869.221 223.4 869.382 223.368 869.503 223.344L870.082 225.903C869.889 225.976 869.619 226.048 869.273 226.121C868.927 226.201 868.489 226.241 867.957 226.241C867.152 226.241 866.364 226.068 865.591 225.722C864.826 225.376 864.19 224.849 863.683 224.141C863.184 223.432 862.935 222.539 862.935 221.46V203.011ZM885.378 218.418V207.455H888.227V226H885.378V222.861H885.185C884.75 223.803 884.074 224.603 883.156 225.263C882.239 225.915 881.08 226.241 879.679 226.241C878.52 226.241 877.49 225.988 876.588 225.481C875.687 224.966 874.978 224.193 874.463 223.163C873.948 222.124 873.69 220.816 873.69 219.239V207.455H876.54V219.045C876.54 220.398 876.918 221.476 877.675 222.281C878.44 223.086 879.413 223.489 880.597 223.489C881.305 223.489 882.025 223.308 882.758 222.945C883.498 222.583 884.118 222.028 884.617 221.279C885.124 220.531 885.378 219.577 885.378 218.418ZM901.172 207.455V209.869H891.561V207.455H901.172ZM894.362 203.011H897.211V220.688C897.211 221.492 897.328 222.096 897.562 222.499C897.803 222.893 898.109 223.159 898.479 223.295C898.858 223.424 899.256 223.489 899.675 223.489C899.988 223.489 900.246 223.473 900.447 223.44C900.649 223.4 900.809 223.368 900.93 223.344L901.51 225.903C901.317 225.976 901.047 226.048 900.701 226.121C900.355 226.201 899.916 226.241 899.385 226.241C898.58 226.241 897.791 226.068 897.018 225.722C896.254 225.376 895.618 224.849 895.111 224.141C894.612 223.432 894.362 222.539 894.362 221.46V203.011ZM912.694 226.386C910.907 226.386 909.366 225.992 908.07 225.203C906.782 224.406 905.788 223.295 905.088 221.871C904.395 220.438 904.049 218.772 904.049 216.872C904.049 214.973 904.395 213.298 905.088 211.849C905.788 210.393 906.762 209.258 908.01 208.445C909.265 207.624 910.73 207.213 912.404 207.213C913.37 207.213 914.324 207.374 915.266 207.696C916.208 208.018 917.065 208.541 917.838 209.266C918.61 209.982 919.226 210.932 919.685 212.115C920.144 213.298 920.373 214.755 920.373 216.486V217.693H906.078V215.23H917.475C917.475 214.184 917.266 213.25 916.848 212.429C916.437 211.608 915.849 210.96 915.085 210.485C914.328 210.01 913.435 209.773 912.404 209.773C911.269 209.773 910.287 210.054 909.458 210.618C908.637 211.173 908.006 211.898 907.563 212.791C907.12 213.685 906.899 214.643 906.899 215.665V217.307C906.899 218.707 907.14 219.895 907.623 220.869C908.114 221.835 908.794 222.571 909.664 223.078C910.533 223.577 911.543 223.827 912.694 223.827C913.443 223.827 914.119 223.722 914.723 223.513C915.334 223.295 915.862 222.973 916.304 222.547C916.747 222.112 917.089 221.573 917.331 220.929L920.083 221.702C919.794 222.635 919.307 223.456 918.622 224.165C917.938 224.865 917.093 225.412 916.087 225.807C915.081 226.193 913.95 226.386 912.694 226.386ZM941.124 226.386C939.45 226.386 937.981 225.988 936.717 225.191C935.462 224.394 934.48 223.279 933.771 221.847C933.071 220.414 932.721 218.74 932.721 216.824C932.721 214.892 933.071 213.206 933.771 211.765C934.48 210.324 935.462 209.205 936.717 208.408C937.981 207.612 939.45 207.213 941.124 207.213C942.799 207.213 944.264 207.612 945.519 208.408C946.783 209.205 947.765 210.324 948.465 211.765C949.174 213.206 949.528 214.892 949.528 216.824C949.528 218.74 949.174 220.414 948.465 221.847C947.765 223.279 946.783 224.394 945.519 225.191C944.264 225.988 942.799 226.386 941.124 226.386ZM941.124 223.827C942.396 223.827 943.443 223.501 944.264 222.849C945.085 222.197 945.692 221.339 946.087 220.277C946.481 219.214 946.678 218.063 946.678 216.824C946.678 215.584 946.481 214.429 946.087 213.359C945.692 212.288 945.085 211.423 944.264 210.763C943.443 210.103 942.396 209.773 941.124 209.773C939.853 209.773 938.806 210.103 937.985 210.763C937.164 211.423 936.556 212.288 936.162 213.359C935.768 214.429 935.57 215.584 935.57 216.824C935.57 218.063 935.768 219.214 936.162 220.277C936.556 221.339 937.164 222.197 937.985 222.849C938.806 223.501 939.853 223.827 941.124 223.827ZM961.796 207.455V209.869H951.799V207.455H961.796ZM954.793 226V204.895C954.793 203.832 955.043 202.947 955.542 202.239C956.041 201.53 956.689 200.999 957.486 200.645C958.282 200.291 959.124 200.114 960.009 200.114C960.709 200.114 961.281 200.17 961.723 200.283C962.166 200.395 962.496 200.5 962.714 200.597L961.893 203.06C961.748 203.011 961.546 202.951 961.289 202.879C961.039 202.806 960.709 202.77 960.299 202.77C959.357 202.77 958.677 203.007 958.258 203.482C957.848 203.957 957.643 204.653 957.643 205.571V226H954.793ZM973.706 203.929V201.273H992.251V203.929H984.476V226H981.481V203.929H973.706ZM1001.23 226.386C999.445 226.386 997.904 225.992 996.608 225.203C995.32 224.406 994.326 223.295 993.626 221.871C992.934 220.438 992.588 218.772 992.588 216.872C992.588 214.973 992.934 213.298 993.626 211.849C994.326 210.393 995.3 209.258 996.548 208.445C997.803 207.624 999.268 207.213 1000.94 207.213C1001.91 207.213 1002.86 207.374 1003.8 207.696C1004.75 208.018 1005.6 208.541 1006.38 209.266C1007.15 209.982 1007.76 210.932 1008.22 212.115C1008.68 213.298 1008.91 214.755 1008.91 216.486V217.693H994.616V215.23H1006.01C1006.01 214.184 1005.8 213.25 1005.39 212.429C1004.98 211.608 1004.39 210.96 1003.62 210.485C1002.87 210.01 1001.97 209.773 1000.94 209.773C999.808 209.773 998.826 210.054 997.997 210.618C997.176 211.173 996.544 211.898 996.101 212.791C995.658 213.685 995.437 214.643 995.437 215.665V217.307C995.437 218.707 995.678 219.895 996.161 220.869C996.652 221.835 997.333 222.571 998.202 223.078C999.071 223.577 1000.08 223.827 1001.23 223.827C1001.98 223.827 1002.66 223.722 1003.26 223.513C1003.87 223.295 1004.4 222.973 1004.84 222.547C1005.29 222.112 1005.63 221.573 1005.87 220.929L1008.62 221.702C1008.33 222.635 1007.84 223.456 1007.16 224.165C1006.48 224.865 1005.63 225.412 1004.63 225.807C1003.62 226.193 1002.49 226.386 1001.23 226.386ZM1020.44 226.386C1018.7 226.386 1017.2 225.976 1015.95 225.155C1014.69 224.334 1013.73 223.203 1013.05 221.762C1012.37 220.321 1012.04 218.675 1012.04 216.824C1012.04 214.94 1012.38 213.278 1013.07 211.837C1013.78 210.388 1014.75 209.258 1016 208.445C1017.25 207.624 1018.72 207.213 1020.39 207.213C1021.7 207.213 1022.87 207.455 1023.92 207.938C1024.96 208.42 1025.82 209.097 1026.49 209.966C1027.16 210.835 1027.57 211.849 1027.73 213.009H1024.88C1024.67 212.163 1024.18 211.415 1023.43 210.763C1022.69 210.103 1021.7 209.773 1020.44 209.773C1019.33 209.773 1018.36 210.062 1017.52 210.642C1016.69 211.214 1016.04 212.022 1015.57 213.069C1015.12 214.107 1014.89 215.327 1014.89 216.727C1014.89 218.16 1015.11 219.408 1015.56 220.47C1016.02 221.533 1016.66 222.358 1017.49 222.945C1018.33 223.533 1019.31 223.827 1020.44 223.827C1021.18 223.827 1021.85 223.698 1022.46 223.44C1023.06 223.183 1023.57 222.812 1023.99 222.33C1024.41 221.847 1024.71 221.267 1024.88 220.591H1027.73C1027.57 221.686 1027.17 222.672 1026.54 223.549C1025.91 224.418 1025.08 225.111 1024.04 225.626C1023.01 226.133 1021.81 226.386 1020.44 226.386ZM1034.41 214.844V226H1031.56V201.273H1034.41V210.352H1034.65C1035.08 209.394 1035.74 208.634 1036.6 208.07C1037.48 207.499 1038.65 207.213 1040.11 207.213C1041.37 207.213 1042.48 207.467 1043.43 207.974C1044.38 208.473 1045.11 209.241 1045.64 210.28C1046.17 211.31 1046.43 212.622 1046.43 214.216V226H1043.58V214.409C1043.58 212.936 1043.2 211.797 1042.44 210.992C1041.68 210.179 1040.63 209.773 1039.29 209.773C1038.35 209.773 1037.51 209.97 1036.77 210.364C1036.04 210.759 1035.46 211.334 1035.04 212.091C1034.62 212.848 1034.41 213.765 1034.41 214.844ZM1054.16 214.844V226H1051.31V207.455H1054.06V210.352H1054.3C1054.73 209.411 1055.39 208.654 1056.28 208.082C1057.17 207.503 1058.31 207.213 1059.71 207.213C1060.97 207.213 1062.06 207.471 1063.01 207.986C1063.95 208.493 1064.68 209.266 1065.2 210.304C1065.73 211.334 1065.99 212.638 1065.99 214.216V226H1063.14V214.409C1063.14 212.952 1062.76 211.817 1062 211.004C1061.25 210.183 1060.21 209.773 1058.89 209.773C1057.98 209.773 1057.17 209.97 1056.45 210.364C1055.74 210.759 1055.18 211.334 1054.77 212.091C1054.36 212.848 1054.16 213.765 1054.16 214.844ZM1078.39 226.386C1076.71 226.386 1075.25 225.988 1073.98 225.191C1072.73 224.394 1071.74 223.279 1071.04 221.847C1070.34 220.414 1069.99 218.74 1069.99 216.824C1069.99 214.892 1070.34 213.206 1071.04 211.765C1071.74 210.324 1072.73 209.205 1073.98 208.408C1075.25 207.612 1076.71 207.213 1078.39 207.213C1080.06 207.213 1081.53 207.612 1082.78 208.408C1084.05 209.205 1085.03 210.324 1085.73 211.765C1086.44 213.206 1086.79 214.892 1086.79 216.824C1086.79 218.74 1086.44 220.414 1085.73 221.847C1085.03 223.279 1084.05 224.394 1082.78 225.191C1081.53 225.988 1080.06 226.386 1078.39 226.386ZM1078.39 223.827C1079.66 223.827 1080.71 223.501 1081.53 222.849C1082.35 222.197 1082.96 221.339 1083.35 220.277C1083.75 219.214 1083.94 218.063 1083.94 216.824C1083.94 215.584 1083.75 214.429 1083.35 213.359C1082.96 212.288 1082.35 211.423 1081.53 210.763C1080.71 210.103 1079.66 209.773 1078.39 209.773C1077.12 209.773 1076.07 210.103 1075.25 210.763C1074.43 211.423 1073.82 212.288 1073.43 213.359C1073.03 214.429 1072.83 215.584 1072.83 216.824C1072.83 218.063 1073.03 219.214 1073.43 220.277C1073.82 221.339 1074.43 222.197 1075.25 222.849C1076.07 223.501 1077.12 223.827 1078.39 223.827ZM1093.65 201.273V226H1090.8V201.273H1093.65ZM1106.06 226.386C1104.39 226.386 1102.92 225.988 1101.66 225.191C1100.4 224.394 1099.42 223.279 1098.71 221.847C1098.01 220.414 1097.66 218.74 1097.66 216.824C1097.66 214.892 1098.01 213.206 1098.71 211.765C1099.42 210.324 1100.4 209.205 1101.66 208.408C1102.92 207.612 1104.39 207.213 1106.06 207.213C1107.74 207.213 1109.2 207.612 1110.46 208.408C1111.72 209.205 1112.7 210.324 1113.41 211.765C1114.11 213.206 1114.47 214.892 1114.47 216.824C1114.47 218.74 1114.11 220.414 1113.41 221.847C1112.7 223.279 1111.72 224.394 1110.46 225.191C1109.2 225.988 1107.74 226.386 1106.06 226.386ZM1106.06 223.827C1107.34 223.827 1108.38 223.501 1109.2 222.849C1110.02 222.197 1110.63 221.339 1111.03 220.277C1111.42 219.214 1111.62 218.063 1111.62 216.824C1111.62 215.584 1111.42 214.429 1111.03 213.359C1110.63 212.288 1110.02 211.423 1109.2 210.763C1108.38 210.103 1107.34 209.773 1106.06 209.773C1104.79 209.773 1103.75 210.103 1102.92 210.763C1102.1 211.423 1101.5 212.288 1101.1 213.359C1100.71 214.429 1100.51 215.584 1100.51 216.824C1100.51 218.063 1100.71 219.214 1101.1 220.277C1101.5 221.339 1102.1 222.197 1102.92 222.849C1103.75 223.501 1104.79 223.827 1106.06 223.827ZM1125.96 233.341C1124.59 233.341 1123.4 233.164 1122.41 232.81C1121.42 232.464 1120.6 232.005 1119.94 231.433C1119.29 230.87 1118.77 230.266 1118.38 229.622L1120.65 228.028C1120.91 228.366 1121.23 228.753 1121.63 229.188C1122.02 229.63 1122.56 230.013 1123.25 230.335C1123.94 230.665 1124.84 230.83 1125.96 230.83C1127.46 230.83 1128.7 230.467 1129.67 229.743C1130.64 229.018 1131.13 227.884 1131.13 226.338V222.571H1130.89C1130.68 222.909 1130.38 223.328 1130 223.827C1129.62 224.318 1129.07 224.756 1128.35 225.143C1127.65 225.521 1126.69 225.71 1125.48 225.71C1123.98 225.71 1122.64 225.356 1121.45 224.648C1120.26 223.939 1119.33 222.909 1118.63 221.557C1117.95 220.205 1117.61 218.562 1117.61 216.631C1117.61 214.731 1117.94 213.077 1118.61 211.668C1119.28 210.252 1120.21 209.157 1121.4 208.384C1122.59 207.603 1123.97 207.213 1125.53 207.213C1126.74 207.213 1127.69 207.414 1128.4 207.817C1129.12 208.211 1129.67 208.662 1130.04 209.169C1130.43 209.668 1130.73 210.079 1130.94 210.401H1131.23V207.455H1133.98V226.531C1133.98 228.125 1133.62 229.421 1132.89 230.419C1132.18 231.425 1131.21 232.162 1130 232.629C1128.79 233.103 1127.44 233.341 1125.96 233.341ZM1125.87 223.151C1127.01 223.151 1127.98 222.889 1128.76 222.366C1129.55 221.843 1130.15 221.09 1130.56 220.108C1130.97 219.126 1131.18 217.951 1131.18 216.582C1131.18 215.246 1130.98 214.067 1130.58 213.045C1130.17 212.022 1129.58 211.222 1128.79 210.642C1128 210.062 1127.03 209.773 1125.87 209.773C1124.66 209.773 1123.65 210.079 1122.85 210.69C1122.05 211.302 1121.45 212.123 1121.05 213.153C1120.65 214.184 1120.46 215.327 1120.46 216.582C1120.46 217.87 1120.66 219.009 1121.06 219.999C1121.47 220.981 1122.08 221.754 1122.87 222.317C1123.68 222.873 1124.68 223.151 1125.87 223.151ZM1140.69 232.955C1140.21 232.955 1139.78 232.914 1139.4 232.834C1139.02 232.761 1138.76 232.689 1138.61 232.616L1139.34 230.105C1140.03 230.282 1140.64 230.347 1141.17 230.298C1141.71 230.25 1142.18 230.013 1142.59 229.586C1143.01 229.167 1143.39 228.487 1143.73 227.545L1144.26 226.097L1137.41 207.455H1140.5L1145.62 222.233H1145.81L1150.93 207.455H1154.02L1146.15 228.705C1145.79 229.662 1145.36 230.455 1144.83 231.083C1144.31 231.719 1143.7 232.19 1143.01 232.496C1142.33 232.802 1141.55 232.955 1140.69 232.955Z" fill="black"/>
<path d="M538.241 108.818V151H533.298L510.312 117.881H509.9V151H504.792V108.818H509.735L532.803 142.02H533.215V108.818H538.241ZM560.075 151.659C557.219 151.659 554.713 150.979 552.557 149.62C550.415 148.261 548.74 146.359 547.532 143.915C546.337 141.471 545.74 138.615 545.74 135.347C545.74 132.051 546.337 129.174 547.532 126.717C548.74 124.259 550.415 122.35 552.557 120.991C554.713 119.631 557.219 118.952 560.075 118.952C562.931 118.952 565.43 119.631 567.572 120.991C569.728 122.35 571.403 124.259 572.598 126.717C573.806 129.174 574.41 132.051 574.41 135.347C574.41 138.615 573.806 141.471 572.598 143.915C571.403 146.359 569.728 148.261 567.572 149.62C565.43 150.979 562.931 151.659 560.075 151.659ZM560.075 147.293C562.245 147.293 564.03 146.737 565.43 145.624C566.831 144.512 567.867 143.05 568.54 141.237C569.213 139.425 569.549 137.461 569.549 135.347C569.549 133.232 569.213 131.262 568.54 129.435C567.867 127.609 566.831 126.133 565.43 125.007C564.03 123.881 562.245 123.318 560.075 123.318C557.906 123.318 556.121 123.881 554.72 125.007C553.319 126.133 552.283 127.609 551.61 129.435C550.937 131.262 550.601 133.232 550.601 135.347C550.601 137.461 550.937 139.425 551.61 141.237C552.283 143.05 553.319 144.512 554.72 145.624C556.121 146.737 557.906 147.293 560.075 147.293ZM595.009 119.364V123.483H578.614V119.364H595.009ZM583.392 111.784H588.253V141.938C588.253 143.311 588.452 144.34 588.85 145.027C589.262 145.7 589.784 146.153 590.416 146.386C591.061 146.606 591.741 146.716 592.455 146.716C592.99 146.716 593.43 146.688 593.773 146.634C594.116 146.565 594.391 146.51 594.597 146.469L595.585 150.835C595.256 150.959 594.796 151.082 594.205 151.206C593.615 151.343 592.867 151.412 591.96 151.412C590.587 151.412 589.242 151.117 587.923 150.526C586.619 149.936 585.534 149.036 584.669 147.828C583.818 146.62 583.392 145.096 583.392 143.256V111.784ZM601.741 151V119.364H606.601V151H601.741ZM604.212 114.091C603.265 114.091 602.448 113.768 601.761 113.123C601.088 112.478 600.752 111.702 600.752 110.795C600.752 109.889 601.088 109.113 601.761 108.468C602.448 107.823 603.265 107.5 604.212 107.5C605.16 107.5 605.97 107.823 606.643 108.468C607.329 109.113 607.672 109.889 607.672 110.795C607.672 111.702 607.329 112.478 606.643 113.123C605.97 113.768 605.16 114.091 604.212 114.091ZM627.776 151.659C624.92 151.659 622.414 150.979 620.259 149.62C618.117 148.261 616.441 146.359 615.233 143.915C614.039 141.471 613.441 138.615 613.441 135.347C613.441 132.051 614.039 129.174 615.233 126.717C616.441 124.259 618.117 122.35 620.259 120.991C622.414 119.631 624.92 118.952 627.776 118.952C630.633 118.952 633.132 119.631 635.274 120.991C637.429 122.35 639.105 124.259 640.299 126.717C641.508 129.174 642.112 132.051 642.112 135.347C642.112 138.615 641.508 141.471 640.299 143.915C639.105 146.359 637.429 148.261 635.274 149.62C633.132 150.979 630.633 151.659 627.776 151.659ZM627.776 147.293C629.946 147.293 631.731 146.737 633.132 145.624C634.532 144.512 635.569 143.05 636.242 141.237C636.914 139.425 637.251 137.461 637.251 135.347C637.251 133.232 636.914 131.262 636.242 129.435C635.569 127.609 634.532 126.133 633.132 125.007C631.731 123.881 629.946 123.318 627.776 123.318C625.607 123.318 623.822 123.881 622.421 125.007C621.021 126.133 619.984 127.609 619.311 129.435C618.638 131.262 618.302 133.232 618.302 135.347C618.302 137.461 618.638 139.425 619.311 141.237C619.984 143.05 621.021 144.512 622.421 145.624C623.822 146.737 625.607 147.293 627.776 147.293ZM653.812 131.969V151H648.952V119.364H653.648V124.307H654.06C654.801 122.7 655.927 121.41 657.437 120.435C658.948 119.446 660.898 118.952 663.287 118.952C665.429 118.952 667.303 119.391 668.91 120.27C670.516 121.135 671.766 122.453 672.658 124.224C673.551 125.982 673.997 128.206 673.997 130.898V151H669.136V131.227C669.136 128.742 668.491 126.806 667.2 125.419C665.909 124.018 664.138 123.318 661.886 123.318C660.335 123.318 658.948 123.655 657.726 124.327C656.517 125 655.563 125.982 654.863 127.273C654.163 128.563 653.812 130.129 653.812 131.969ZM732.634 122H727.526C727.224 120.531 726.695 119.24 725.94 118.128C725.199 117.016 724.292 116.082 723.221 115.327C722.164 114.558 720.99 113.981 719.699 113.597C718.409 113.212 717.063 113.02 715.663 113.02C713.109 113.02 710.795 113.665 708.721 114.956C706.662 116.247 705.021 118.148 703.799 120.661C702.591 123.174 701.986 126.257 701.986 129.909C701.986 133.562 702.591 136.644 703.799 139.157C705.021 141.67 706.662 143.571 708.721 144.862C710.795 146.153 713.109 146.798 715.663 146.798C717.063 146.798 718.409 146.606 719.699 146.222C720.99 145.837 722.164 145.267 723.221 144.512C724.292 143.743 725.199 142.803 725.94 141.69C726.695 140.564 727.224 139.274 727.526 137.818H732.634C732.25 139.974 731.549 141.903 730.533 143.606C729.517 145.308 728.254 146.757 726.743 147.952C725.233 149.133 723.537 150.032 721.656 150.65C719.789 151.268 717.791 151.577 715.663 151.577C712.065 151.577 708.866 150.698 706.065 148.94C703.263 147.183 701.06 144.684 699.453 141.443C697.846 138.203 697.043 134.358 697.043 129.909C697.043 125.46 697.846 121.616 699.453 118.375C701.06 115.134 703.263 112.635 706.065 110.878C708.866 109.12 712.065 108.241 715.663 108.241C717.791 108.241 719.789 108.55 721.656 109.168C723.537 109.786 725.233 110.692 726.743 111.887C728.254 113.068 729.517 114.51 730.533 116.212C731.549 117.901 732.25 119.83 732.634 122ZM752.501 151.659C749.645 151.659 747.139 150.979 744.984 149.62C742.842 148.261 741.166 146.359 739.958 143.915C738.763 141.471 738.166 138.615 738.166 135.347C738.166 132.051 738.763 129.174 739.958 126.717C741.166 124.259 742.842 122.35 744.984 120.991C747.139 119.631 749.645 118.952 752.501 118.952C755.357 118.952 757.857 119.631 759.999 120.991C762.154 122.35 763.83 124.259 765.024 126.717C766.232 129.174 766.837 132.051 766.837 135.347C766.837 138.615 766.232 141.471 765.024 143.915C763.83 146.359 762.154 148.261 759.999 149.62C757.857 150.979 755.357 151.659 752.501 151.659ZM752.501 147.293C754.671 147.293 756.456 146.737 757.857 145.624C759.257 144.512 760.294 143.05 760.967 141.237C761.639 139.425 761.976 137.461 761.976 135.347C761.976 133.232 761.639 131.262 760.967 129.435C760.294 127.609 759.257 126.133 757.857 125.007C756.456 123.881 754.671 123.318 752.501 123.318C750.332 123.318 748.547 123.881 747.146 125.007C745.746 126.133 744.709 127.609 744.036 129.435C743.363 131.262 743.027 133.232 743.027 135.347C743.027 137.461 743.363 139.425 744.036 141.237C744.709 143.05 745.746 144.512 747.146 145.624C748.547 146.737 750.332 147.293 752.501 147.293ZM773.677 151V119.364H778.373V124.307H778.784C779.444 122.618 780.508 121.307 781.977 120.373C783.446 119.425 785.211 118.952 787.27 118.952C789.357 118.952 791.094 119.425 792.481 120.373C793.882 121.307 794.973 122.618 795.756 124.307H796.086C796.896 122.673 798.111 121.375 799.731 120.414C801.351 119.439 803.294 118.952 805.56 118.952C808.389 118.952 810.702 119.837 812.501 121.609C814.3 123.366 815.199 126.106 815.199 129.827V151H810.338V129.827C810.338 127.492 809.7 125.824 808.423 124.822C807.146 123.819 805.642 123.318 803.912 123.318C801.688 123.318 799.965 123.991 798.743 125.337C797.521 126.669 796.909 128.357 796.909 130.403V151H791.966V129.332C791.966 127.534 791.383 126.085 790.216 124.987C789.048 123.874 787.545 123.318 785.705 123.318C784.442 123.318 783.261 123.655 782.162 124.327C781.078 125 780.199 125.934 779.526 127.129C778.867 128.309 778.537 129.676 778.537 131.227V151H773.677ZM823.507 151V119.364H828.203V124.307H828.615C829.274 122.618 830.338 121.307 831.807 120.373C833.276 119.425 835.041 118.952 837.1 118.952C839.188 118.952 840.925 119.425 842.311 120.373C843.712 121.307 844.804 122.618 845.586 124.307H845.916C846.726 122.673 847.941 121.375 849.561 120.414C851.182 119.439 853.125 118.952 855.39 118.952C858.219 118.952 860.532 119.837 862.331 121.609C864.13 123.366 865.029 126.106 865.029 129.827V151H860.169V129.827C860.169 127.492 859.53 125.824 858.253 124.822C856.976 123.819 855.473 123.318 853.742 123.318C851.518 123.318 849.795 123.991 848.573 125.337C847.351 126.669 846.74 128.357 846.74 130.403V151H841.796V129.332C841.796 127.534 841.213 126.085 840.046 124.987C838.879 123.874 837.375 123.318 835.535 123.318C834.272 123.318 833.091 123.655 831.992 124.327C830.908 125 830.029 125.934 829.356 127.129C828.697 128.309 828.367 129.676 828.367 131.227V151H823.507ZM893.274 138.065V119.364H898.135V151H893.274V145.645H892.945C892.203 147.251 891.05 148.618 889.485 149.744C887.919 150.856 885.942 151.412 883.553 151.412C881.575 151.412 879.818 150.979 878.28 150.114C876.742 149.236 875.534 147.917 874.655 146.16C873.776 144.388 873.337 142.157 873.337 139.466V119.364H878.198V139.136C878.198 141.443 878.843 143.283 880.134 144.656C881.438 146.029 883.1 146.716 885.118 146.716C886.326 146.716 887.555 146.407 888.805 145.789C890.068 145.171 891.125 144.224 891.977 142.947C892.842 141.67 893.274 140.043 893.274 138.065ZM911.319 131.969V151H906.458V119.364H911.154V124.307H911.566C912.307 122.7 913.433 121.41 914.944 120.435C916.454 119.446 918.404 118.952 920.793 118.952C922.935 118.952 924.81 119.391 926.416 120.27C928.023 121.135 929.272 122.453 930.165 124.224C931.057 125.982 931.503 128.206 931.503 130.898V151H926.643V131.227C926.643 128.742 925.997 126.806 924.707 125.419C923.416 124.018 921.645 123.318 919.393 123.318C917.841 123.318 916.454 123.655 915.232 124.327C914.024 125 913.07 125.982 912.369 127.273C911.669 128.563 911.319 130.129 911.319 131.969ZM939.806 151V119.364H944.667V151H939.806ZM942.277 114.091C941.33 114.091 940.513 113.768 939.826 113.123C939.154 112.478 938.817 111.702 938.817 110.795C938.817 109.889 939.154 109.113 939.826 108.468C940.513 107.823 941.33 107.5 942.277 107.5C943.225 107.5 944.035 107.823 944.708 108.468C945.394 109.113 945.738 109.889 945.738 110.795C945.738 111.702 945.394 112.478 944.708 113.123C944.035 113.768 943.225 114.091 942.277 114.091ZM966.748 119.364V123.483H950.353V119.364H966.748ZM955.131 111.784H959.992V141.938C959.992 143.311 960.191 144.34 960.59 145.027C961.001 145.7 961.523 146.153 962.155 146.386C962.8 146.606 963.48 146.716 964.194 146.716C964.729 146.716 965.169 146.688 965.512 146.634C965.855 146.565 966.13 146.51 966.336 146.469L967.325 150.835C966.995 150.959 966.535 151.082 965.945 151.206C965.354 151.343 964.606 151.412 963.7 151.412C962.327 151.412 960.981 151.117 959.663 150.526C958.358 149.936 957.274 149.036 956.408 147.828C955.557 146.62 955.131 145.096 955.131 143.256V111.784ZM976.61 162.864C975.787 162.864 975.052 162.795 974.407 162.658C973.761 162.534 973.315 162.411 973.068 162.287L974.304 158.003C975.484 158.305 976.528 158.415 977.434 158.332C978.341 158.25 979.144 157.845 979.844 157.117C980.558 156.403 981.21 155.243 981.801 153.636L982.707 151.165L971.008 119.364H976.281L985.014 144.574H985.343L994.076 119.364H999.349L985.92 155.614C985.316 157.248 984.568 158.6 983.675 159.671C982.783 160.756 981.746 161.559 980.565 162.081C979.398 162.603 978.08 162.864 976.61 162.864Z" fill="black"/>
</svg>
